<?xml version="1.0" standalone="yes"?>
<svg xmlns="http://www.w3.org/2000/svg" width="450" height="450">
<path style="fill:#fffffe; stroke:none;" d="M0 0L0 450L450 450L450 0L0 0z"/>
<path style="fill:#fed36b; stroke:none;" d="M144 81L145 81L154 73L159 74L157 70L163 71C163.678 65.8669 170.916 61.7256 175 59C177.639 68.3912 184.258 52.2526 186 49L187 49L187 54L193 54L193 62L223 60L227 92C233.841 93.2588 240.133 91.4646 247 92.2855C268.716 94.8813 290.529 98.8444 312 103C319.24 104.401 335.547 104.183 340.397 110.279C344.757 115.759 341.444 128.343 342 135C347.403 131.191 360.726 119.62 362 113L367 111L378 97L386 91L387 101C393.463 107.898 392.103 126.938 391 136L392 136L392 134L393 134L392 140C395.443 140 394 146.133 394 149C394 158.182 394.347 167.994 395 177C397.892 216.91 398 258.086 398 299C404.028 284.634 399.709 261.288 399.039 246C397.373 207.952 399.457 169.863 394.424 132C392.587 118.174 394.281 93.4832 384.351 82.5293C368.086 64.5865 335.795 60.1929 314 52.9992C292.669 45.9588 272.289 36.4556 251 29.3333C242.044 26.3371 231.667 21.2889 222 23.3904C204.917 27.1042 188.683 45.7662 175 55.8457C165.831 62.5999 149.189 70.7821 144 81z"/>
<path style="fill:#ffab55; stroke:none;" d="M218.667 27.3333L219.333 27.6667L218.667 27.3333M214 29L215 30L214 29M217.667 29.3333L218.333 29.6667L217.667 29.3333M208 33L209 34L208 33M205 36L207 38L207 36L205 36M203 37L204 38L203 37M198 41L199 42L198 41M193 48L193 50L195 50L195 48L193 48M186 49C183.004 52.4389 179.322 65.9429 175 59C170.383 61.1303 163.256 65.5946 163 71L157 70L159 74L154 73L143 80L143 83L142 83L128.996 91.0363L106 111.79L92 123C98.6 124.188 104.868 131.094 110 135.2C123.509 146.006 147.722 158.419 151 176L148 175L147 186C153.208 189.808 151 199.54 151 206L147 206L147 207C150.651 207.813 157.149 207.18 160.137 208.666C165.434 211.299 163 225.061 163 230L166 232L167 232C174.996 227.616 170.65 248.926 175 252L193 157L229 157L220 205C233.85 195.838 246.409 183.69 259 172.87C264.641 168.021 271.033 160.667 278 157.858C289.106 153.38 308.048 157 320 157L242 223L301 294C290.118 294 269.728 297.951 260.015 292.972C254.481 290.136 250.399 282.749 246.6 278C236.325 265.155 226.071 247.998 213 238L203 294L181 294C182.481 301.161 188.746 301.302 195 302.551C204.96 304.54 214.987 306.232 225 307.919C228.707 308.544 234.769 308.303 237.382 311.434C241.125 315.918 235.379 337.206 234 343C260.651 337.142 285.411 324.735 311 315.653C317.966 313.18 328.529 304.151 336 304.949C340.121 305.389 344.466 310.092 348 312.153C357.91 317.93 368.113 323.176 378 329.005C380.973 330.757 388.909 337.638 392.264 334.5C394.727 332.195 394.205 327.988 394.903 325C397.274 314.841 398.17 303.462 398.005 293C397.604 267.696 398.928 242.288 397.981 217C397.573 206.09 395.621 195.49 395.847 184.588C396.082 173.292 394.078 162.215 394 151C393.979 147.988 395.388 140.565 392 140L393 134L392 134L392 136L391 136C392.638 128.494 393.505 105.596 387 101L386 91L378 97L367 111L362 113L342 135C341.761 128.636 344.815 114.422 340.397 109.514C335.33 103.885 318.222 103.962 311 102.611C282.855 97.3466 255.066 94.9488 227 92L223 60L193 62L193 54L187 54L186 49M175 57L176 58L175 57z"/>
<path style="fill:#fed36b; stroke:none;" d="M199 66L199 69L201 69L201 66L199 66M205 66L205 68L207 68L207 66L205 66z"/>
<path style="fill:#ffab55; stroke:none;" d="M160 68L161 69L160 68z"/>
<path style="fill:#fed36b; stroke:none;" d="M194 70L191 76C191.883 76 208.906 77.1134 199 71.5C197.206 70.4836 195.738 71.3034 194 70z"/>
<path style="fill:#ffab55; stroke:none;" d="M156 72L157 73L156 72z"/>
<path style="fill:#fed36b; stroke:none;" d="M142 80L143 83L142 80M140 82L141 83L140 82M138 83L139 84L138 83M137 84L138 85L137 84M136 85L137 86L136 85M134 86L133 88L135 88L134 86M132 88L133 89L132 88M130.667 89.3333L131.333 89.6667L130.667 89.3333M129 90L130 91L129 90M127.667 91.3333L128.333 91.6667L127.667 91.3333M126 92L127 93L126 92M125 93L126 94L125 93M124 94L125 95L124 94M203 94L203 95L212 95L203 94M226 94L226 96L228 94L226 94M123 95L124 96L123 95M121 96L122 97L121 96M120 97L121 98L120 97M119 98L120 99L119 98M219 98L219 99L222 99L219 98M223 98L223 100L225 98L223 98M118 99L119 100L118 99M117 100L118 101L117 100M383 100L383 102L385 102L385 100L383 100M116 101L117 102L116 101M218 104L221 101L218 104M115 102L116 103L115 102M215 102L216 103L215 102M114 103L115 104L114 103M387 103L388 104L387 103M113 104L114 105L113 104M215 104L216 105L215 104M112 105L113 106L112 105M111 106L112 107L111 106M110 107L111 108L110 107M109 108L110 109L109 108M108 109L109 110L108 109M107 110L108 111L107 110M207.333 110.667L207.667 111.333L207.333 110.667M106 111L107 112L106 111M204 111L205 112L204 111M105 112L106 113L105 112M103.667 113.333L104.333 113.667L103.667 113.333M102 114L103 115L102 114M200 114L200 115L203 116L200 114M100 115L101 116L100 115M332 115L331 121L335 116L334 115L332 115M99 116L100 117L99 116M97 117L98 118L97 117M96 118L97 119L96 118M95 119L96 120L95 119z"/>
<path style="fill:#fd603c; stroke:none;" d="M93 122C89.2206 129.21 89.5856 137.095 88.8302 145C87.5558 158.338 86.1204 171.668 84.8302 185C80.3995 230.786 74.2212 276.979 73.9992 323C73.9303 337.288 73 351.642 73 366C73 371.572 71.6151 379.215 75.4336 383.815C80.1657 389.515 89.2316 392.306 96 394.656C109.057 399.19 122.035 403.888 135 408.681C153.702 415.596 175.859 428.523 196 428.985C214.102 429.401 232.726 419.297 249 412.281C280.874 398.539 312.174 384.208 343 368.258C358.79 360.088 380.237 350.613 391 336L351 313.28L336 304.643L310 315.607L234 343C235.678 337.323 241.245 316.312 237.968 311.434C235.703 308.061 228.61 308.377 225 307.75C214.074 305.852 185.084 305.722 181 294L167 294C169.739 283.412 176.675 263.97 174.416 253.285C173.675 249.781 172.903 225.607 167 232L166 232L163 230L161.397 209.052L147 207L147 206L151 206C151 200.034 153.539 188.629 147 186L148 175L151 176C149.495 164.1 141.961 160.035 133 152.803C120.152 142.434 107.371 130.188 93 122z"/>
<path style="fill:#fed36b; stroke:none;" d="M191 122L192 123L191 122M365 122L365 130L367 130L367 122L365 122M91 123L92 124L91 123z"/>
<path style="fill:#ffab55; stroke:none;" d="M91 124L92 125L91 124z"/>
<path style="fill:#fed36b; stroke:none;" d="M90 126L91 127L90 126z"/>
<path style="fill:#ffab55; stroke:none;" d="M90 127L91 128L90 127z"/>
<path style="fill:#fed36b; stroke:none;" d="M89.3333 130.667L89.6667 131.333L89.3333 130.667M183 130L184 131L183 130M159 131C147.89 131.848 157.38 140.923 159 131z"/>
<path style="fill:#ffab55; stroke:none;" d="M89 132L89 136L90 136L89 132z"/>
<path style="fill:#fed36b; stroke:none;" d="M181 132L182 133L181 132M377 138L375 145C380.391 144.503 381.982 143.373 383 138L377 138M88 141L88 145L89 145L88 141z"/>
<path style="fill:#ffab55; stroke:none;" d="M88 145L88 148L89 148L88 145z"/>
<path style="fill:#fed36b; stroke:none;" d="M87.3333 151.667L87.6667 152.333L87.3333 151.667z"/>
<path style="fill:#ffab55; stroke:none;" d="M87 153L87 157L88 157L87 153z"/>
<path style="fill:#fd603c; stroke:none;" d="M193.333 157.667L193.667 158.333L193.333 157.667z"/>
<path style="fill:#fa0201; stroke:none;" d="M167 294L192 294L201.262 292.972L205.389 278L213 237C224.584 249.586 234.913 263.641 245.6 277C249.453 281.817 254.306 290.994 260.171 293.397C270.424 297.597 288.908 294 300 294C291.492 275.646 271.23 258.578 258.247 243C254.753 238.808 243.9 229.699 244.041 224.004C244.193 217.883 258.65 209.437 263 205.728C280.68 190.653 305.248 175.685 319 157C307.118 157 289.188 153.608 278 157.6C271.381 159.961 265.326 167.298 260 171.754C246.463 183.079 233.48 195.92 219 206L229 157L204 157L194.738 158.028L191.739 168L186.8 193L167 294z"/>
<path style="fill:#fd603c; stroke:none;" d="M319 157L320 158L319 157M228 158L228 161L229 161L228 158M318 158L319 159L318 158M274 159L275 160L274 159M317 159L318 160L317 159z"/>
<path style="fill:#fed36b; stroke:none;" d="M86 160L86 163L87 163L86 160z"/>
<path style="fill:#fd603c; stroke:none;" d="M273 160L274 161L273 160M272 161L273 162L272 161M192.333 162.667L192.667 163.333L192.333 162.667M313 162L314 163L313 162z"/>
<path style="fill:#ffab55; stroke:none;" d="M86 163L86 167L87 167L86 163z"/>
<path style="fill:#fd603c; stroke:none;" d="M312 163L313 164L312 163M227.333 164.667L227.667 165.333L227.333 164.667M268 164L269 165L268 164M311 164L312 165L311 164M267 165L268 166L267 165M266 166L267 167L266 166M191 167L191 170L192 170L191 167M265 167L266 168L265 167M307 167L308 168L307 167M306 168L307 169L306 168M226 169L226 172L227 172L226 169M262 169L263 170L262 169M305 169L306 170L305 169z"/>
<path style="fill:#fed36b; stroke:none;" d="M85.3333 170.667L85.6667 171.333L85.3333 170.667z"/>
<path style="fill:#fd603c; stroke:none;" d="M261 170L262 171L261 170M304 170L305 171L304 170M190 171L190 174L191 174L190 171M260 171L261 172L260 171z"/>
<path style="fill:#ffab55; stroke:none;" d="M85 172L85 177L86 177L85 172z"/>
<path style="fill:#fd603c; stroke:none;" d="M259 172L260 173L259 172M180 173L182 175L180 173M300 173L301 174L300 173M225 174L225 177L226 177L225 174M299 174L300 175L299 174M255 175L256 176L255 175M298 175L299 176L298 175M254 176L255 177L254 176M297 176L298 177L297 176M189.333 177.667L189.667 178.333L189.333 177.667M253 177L254 178L253 177M252 178L253 179L252 178M224 179L224 182L225 182L224 179M293 179L294 180L293 179z"/>
<path style="fill:#fed36b; stroke:none;" d="M84 180L84 183L85 183L84 180z"/>
<path style="fill:#fd603c; stroke:none;" d="M249 180L250 181L249 180M292 180L293 181L292 180M188 181L188 185L189 185L188 181M248 181L249 182L248 181M291 181L292 182L291 181M247 182L248 183L247 182M290 182L291 183L290 182z"/>
<path style="fill:#ffab55; stroke:none;" d="M84 183L84 188L85 188L84 183z"/>
<path style="fill:#fd603c; stroke:none;" d="M246 183L247 184L246 183M223 184L223 187L224 187L223 184M286 185L287 186L286 185M242 186L243 187L242 186M285 186L286 187L285 186z"/>
<path style="fill:#fed36b; stroke:none;" d="M393 186L391 190L393 186z"/>
<path style="fill:#fd603c; stroke:none;" d="M187 187L187 190L188 190L187 187M241 187L242 188L241 187M284 187L285 188L284 187z"/>
<path style="fill:#fed36b; stroke:none;" d="M347.075 188.06C344.227 188.574 343.703 193.633 347.035 193.079C350.033 192.58 350.662 187.413 347.075 188.06z"/>
<path style="fill:#fd603c; stroke:none;" d="M240 188L241 189L240 188M283 188L284 189L283 188M222 189L222 192L223 192L222 189M239 189L240 190L239 189z"/>
<path style="fill:#fed36b; stroke:none;" d="M83 190L83 193L84 193L83 190z"/>
<path style="fill:#ffab55; stroke:none;" d="M146 190L147 191L146 190z"/>
<path style="fill:#fd603c; stroke:none;" d="M280 190L281 191L280 190M236 191L237 192L236 191M279 191L280 192L279 191M186 192L186 195L187 195L186 192M235 192L236 193L235 192M278 192L279 193L278 192z"/>
<path style="fill:#ffab55; stroke:none;" d="M83 193L83 198L84 198L83 193z"/>
<path style="fill:#fd603c; stroke:none;" d="M234 193L235 194L234 193M277 193L278 194L277 193M221 194L221 197L222 197L221 194M233 194L234 195L233 194M276 194L277 195L276 194M230 196L231 197L230 196M273 196L274 197L273 196M173 197L173 203L175 203L175 197L173 197M185 197L185 200L186 200L185 197M229 197L230 198L229 197M272 197L273 198L272 197M164 198L165 199L164 198M228 198L229 199L228 198M271 198L272 199L271 198M220 199L220 202L221 202L220 199M227 199L228 200L227 199M270 199L271 200L270 199z"/>
<path style="fill:#fed36b; stroke:none;" d="M82 201L82 204L83 204L82 201z"/>
<path style="fill:#fd603c; stroke:none;" d="M163 201L164 202L163 201M224 201L225 202L224 201M267 201L268 202L267 201M159 202L159 204L162 204L162 202L159 202M184 202L184 205L185 205L184 202M223 202L224 203L223 202M266 202L267 203L266 202M163 203L164 204L163 203M222 203L223 204L222 203M265 203L266 204L265 203z"/>
<path style="fill:#ffab55; stroke:none;" d="M82 204L82 209L83 209L82 204z"/>
<path style="fill:#fd603c; stroke:none;" d="M165 204L166 205L165 204M221 204L222 205L221 204M264 204L265 205L264 204M163 205L164 206L163 205M219.667 205.333L220.333 205.667L219.667 205.333M263 205L264 206L263 205M183 207L183 210L184 210L183 207M260 207L261 208L260 207M259 208L260 209L259 208M258 209L259 210L258 209M257 210L258 211L257 210z"/>
<path style="fill:#fed36b; stroke:none;" d="M81 211L81 214L82 214L81 211M395 211L396 212L395 211z"/>
<path style="fill:#fd603c; stroke:none;" d="M182 212L182 215L183 215L182 212M254 212L255 213L254 212M253 213L254 214L253 213z"/>
<path style="fill:#ffab55; stroke:none;" d="M81 214L81 219L82 219L81 214z"/>
<path style="fill:#fd603c; stroke:none;" d="M252 214L253 215L252 214M251 215L252 216L251 215M250 216L251 217L250 216M181 217L181 220L182 220L181 217M247 218L248 219L247 218M246 219L247 220L246 219M245 220L246 221L245 220M244 221L245 222L244 221z"/>
<path style="fill:#fed36b; stroke:none;" d="M80 222L80 225L81 225L80 222z"/>
<path style="fill:#fd603c; stroke:none;" d="M180 222L180 225L181 225L180 222M243 222L244 223L243 222M242 224L243 225L242 224z"/>
<path style="fill:#ffab55; stroke:none;" d="M80 225L80 230L81 230L80 225z"/>
<path style="fill:#fd603c; stroke:none;" d="M243 225L244 226L243 225z"/>
<path style="fill:#ffab55; stroke:none;" d="M158.333 226.667L158.667 227.333L158.333 226.667z"/>
<path style="fill:#fd603c; stroke:none;" d="M244 226L245 227L244 226M179 227L179 230L180 230L179 227M245 227L246 228L245 227z"/>
<path style="fill:#ffab55; stroke:none;" d="M159.228 231.371C155.476 232.86 158.153 238.076 161.683 236.454C165.118 234.876 162.542 230.056 159.228 231.371z"/>
<path style="fill:#fd603c; stroke:none;" d="M247 230L248 231L247 230M248 231L249 232L248 231z"/>
<path style="fill:#fed36b; stroke:none;" d="M79 232L79 235L80 235L79 232z"/>
<path style="fill:#fd603c; stroke:none;" d="M178 232L178 235L179 235L178 232M249 232L250 233L249 232M250 233L251 234L250 233z"/>
<path style="fill:#ffab55; stroke:none;" d="M79 235L79 240L80 240L79 235z"/>
<path style="fill:#fd603c; stroke:none;" d="M252 236L253 237L252 236M177 237L177 241L178 241L177 237M213 237L214 238L213 237M253 237L254 238L253 237z"/>
<path style="fill:#ffab55; stroke:none;" d="M166 238L163 242L166 238z"/>
<path style="fill:#fd603c; stroke:none;" d="M214 238L215 239L214 238M254 238L255 239L254 238z"/>
<path style="fill:#fed36b; stroke:none;" d="M391 238L391 239L395 239L391 238z"/>
<path style="fill:#fd603c; stroke:none;" d="M215 239L216 240L215 239M255 239L256 240L255 239M212 240L212 243L213 243L212 240M216 240L217 241L216 240M176 242L176 246L177 246L176 242M217 242L218 243L217 242M257 242L258 243L257 242z"/>
<path style="fill:#fed36b; stroke:none;" d="M78 243L78 246L79 246L78 243z"/>
<path style="fill:#fd603c; stroke:none;" d="M218 243L219 244L218 243M258 243L259 244L258 243M219 244L220 245L219 244M259 244L260 245L259 244M220 245L221 246L220 245M260 245L261 246L260 245z"/>
<path style="fill:#ffab55; stroke:none;" d="M78 246L78 252L79 252L78 246z"/>
<path style="fill:#fd603c; stroke:none;" d="M211 246L211 249L212 249L211 246M175 247L175 251L176 251L175 247M222 248L223 249L222 248M262 248L263 249L262 248M223 249L224 250L223 249M263 249L264 250L263 249M224 250L225 251L224 250M264 250L265 251L264 250M210 251L210 254L211 254L210 251M265 251L266 252L265 251M226 253L227 254L226 253M227 254L228 255L227 254z"/>
<path style="fill:#fed36b; stroke:none;" d="M77 255L77 258L78 258L77 255z"/>
<path style="fill:#fd603c; stroke:none;" d="M228 255L229 256L228 255M268 255L269 256L268 255M209 256L209 259L210 259L209 256M269 256L270 257L269 256M270 257L271 258L270 257z"/>
<path style="fill:#ffab55; stroke:none;" d="M77 258L77 263L78 263L77 258z"/>
<path style="fill:#fd603c; stroke:none;" d="M230 258L231 259L230 258M271 258L272 259L271 258M231 259L232 260L231 259M232 260L233 261L232 260M208 261L208 264L209 264L208 261M273 261L274 262L273 261M274 262L275 263L274 262M234 263L235 264L234 263M275 263L276 264L275 263M235 264L236 265L235 264M276 264L277 265L276 264M236 265L237 266L236 265M207 266L207 269L208 269L207 266M237 266L238 267L237 266z"/>
<path style="fill:#fed36b; stroke:none;" d="M76 267L76 270L77 270L76 267z"/>
<path style="fill:#fd603c; stroke:none;" d="M278 267L279 268L278 267M279 268L280 269L279 268M239 269L240 270L239 269M280 269L281 270L280 269z"/>
<path style="fill:#ffab55; stroke:none;" d="M76 270L76 276L77 276L76 270z"/>
<path style="fill:#fd603c; stroke:none;" d="M240 270L241 271L240 270M281 270L282 271L281 270M206 271L206 274L207 274L206 271M241 271L242 272L241 271M283 273L284 274L283 273M243 274L244 275L243 274M284 274L285 275L284 274M244 275L245 276L244 275M285 275L286 276L285 275M245 276L246 277L245 276M286 276L287 277L286 276M205 277L205 280L206 280L205 277z"/>
<path style="fill:#fed36b; stroke:none;" d="M75 279L75 283L76 283L75 279z"/>
<path style="fill:#fd603c; stroke:none;" d="M247 279L248 280L247 279M248 280L249 281L248 280M289 280L290 281L289 280M249 281L250 282L249 281M290 281L291 282L290 281M204 282L204 285L205 285L204 282M291 282L292 283L291 282z"/>
<path style="fill:#fed36b; stroke:none;" d="M361 282C361.774 291.702 371.117 282.787 361 282z"/>
<path style="fill:#ffab55; stroke:none;" d="M75 283L75 290L76 290L75 283z"/>
<path style="fill:#fd603c; stroke:none;" d="M292 283L293 284L292 283M251 284L252 285L251 284M252 285L253 286L252 285M253 286L254 287L253 286M294 286L295 287L294 286z"/>
<path style="fill:#ffab55; stroke:none;" d="M145.458 288.082C142.4 290.03 145.511 294.175 148.254 291.958C150.689 289.989 148.128 286.382 145.458 288.082z"/>
<path style="fill:#fd603c; stroke:none;" d="M203.333 287.667L203.667 288.333L203.333 287.667M295 287L296 288L295 287M296 288L297 289L296 288M255 289L256 290L255 289M297 289L298 290L297 289M256 290L257 291L256 290M298 290L299 291L298 290M257 291L258 292L257 291M202.333 292.667L202.667 293.333L202.333 292.667M300 293L301 294L300 293z"/>
<path style="fill:#fed36b; stroke:none;" d="M74 294L74 298L75 298L74 294z"/>
<path style="fill:#ffab55; stroke:none;" d="M74 298L74 307L75 307L74 298z"/>
<path style="fill:#fed36b; stroke:none;" d="M398 300L397 318L398 318L398 300M73 312L73 317L74 317L73 312z"/>
<path style="fill:#ffab55; stroke:none;" d="M137.263 313.059C134.296 313.649 135.898 318.199 138.721 317.249C141.37 316.358 139.746 312.566 137.263 313.059M73 317L73 331L74 331L73 317M200 324C210.424 322.371 201.629 313.576 200 324z"/>
<path style="fill:#fed36b; stroke:none;" d="M396 318L395 330L396 330L396 318z"/>
<path style="fill:#fd603c; stroke:none;" d="M251.213 322.175C248.259 322.676 249.967 327.519 252.697 326.542C255.232 325.635 253.629 321.766 251.213 322.175z"/>
<path style="fill:#fed36b; stroke:none;" d="M394 330L393 334L394 334L394 330M392 335L393 336L392 335M391 336L392 337L391 336M390 337L391 338L390 337M389 338L390 339L389 338M388 339L389 340L388 339M387 340L388 341L387 340M72 341L72 375L73 375L72 341z"/>
<path style="fill:#ffab55; stroke:none;" d="M385 341L386 342L385 341M384 342L385 343L384 342M383 343L384 344L383 343M381 344L382 345L381 344z"/>
<path style="fill:#fed36b; stroke:none;" d="M382 344L383 345L382 344z"/>
<path style="fill:#ffab55; stroke:none;" d="M380 345L381 346L380 345M379 346L380 347L379 346z"/>
<path style="fill:#fed36b; stroke:none;" d="M378 347L379 348L378 347z"/>
<path style="fill:#ffab55; stroke:none;" d="M376 348L377 349L376 348z"/>
<path style="fill:#fed36b; stroke:none;" d="M375 349L376 350L375 349z"/>
<path style="fill:#ffab55; stroke:none;" d="M373 350L374 351L373 350z"/>
<path style="fill:#fed36b; stroke:none;" d="M374 350L375 351L374 350z"/>
<path style="fill:#ffab55; stroke:none;" d="M372 351L373 352L372 351M370 352L371 353L370 352z"/>
<path style="fill:#fed36b; stroke:none;" d="M371 352L372 353L371 352M369 353L370 354L369 353z"/>
<path style="fill:#ffab55; stroke:none;" d="M367 354L368 355L367 354M365 355L366 356L365 355z"/>
<path style="fill:#fed36b; stroke:none;" d="M366 355L367 356L366 355z"/>
<path style="fill:#ffab55; stroke:none;" d="M364 356L365 357L364 356M362 357L363 358L362 357M360 358L361 359L360 358z"/>
<path style="fill:#fed36b; stroke:none;" d="M361 358L362 359L361 358z"/>
<path style="fill:#ffab55; stroke:none;" d="M359 359L360 360L359 359M357 360L358 361L357 360M355 361L356 362L355 361M353 362L354 363L353 362z"/>
<path style="fill:#fed36b; stroke:none;" d="M354 362L355 363L354 362z"/>
<path style="fill:#ffab55; stroke:none;" d="M351 363L352 364L351 363z"/>
<path style="fill:#fed36b; stroke:none;" d="M352 363L353 364L352 363z"/>
<path style="fill:#ffab55; stroke:none;" d="M350 364L351 365L350 364M348 365L349 366L348 365M346 366L347 367L346 366M344 367L345 368L344 367z"/>
<path style="fill:#fed36b; stroke:none;" d="M345 367L346 368L345 367z"/>
<path style="fill:#ffab55; stroke:none;" d="M342 368L343 369L342 368z"/>
<path style="fill:#fed36b; stroke:none;" d="M343 368L344 369L343 368z"/>
<path style="fill:#ffab55; stroke:none;" d="M340 369L341 370L340 369z"/>
<path style="fill:#fed36b; stroke:none;" d="M341 369L342 370L341 369z"/>
<path style="fill:#ffab55; stroke:none;" d="M338 370L339 371L338 370z"/>
<path style="fill:#fed36b; stroke:none;" d="M339 370L340 371L339 370M337 371L338 372L337 371z"/>
<path style="fill:#ffab55; stroke:none;" d="M335 372L336 373L335 372M333 373L334 374L333 373M331 374L332 375L331 374M72 375L73 376L72 375M329 375L330 376L329 375z"/>
<path style="fill:#fed36b; stroke:none;" d="M72 376L72 379L73 379L72 376z"/>
<path style="fill:#ffab55; stroke:none;" d="M327 376L328 377L327 376M325 377L326 378L325 377M323 378L324 379L323 378M321 379L322 380L321 379M319 380L320 381L319 380M73 381L74 382L73 381M317 381L318 382L317 381M315 382L316 383L315 382z"/>
<path style="fill:#fed36b; stroke:none;" d="M74 383L75 384L74 383z"/>
<path style="fill:#ffab55; stroke:none;" d="M313 383L314 384L313 383z"/>
<path style="fill:#fed36b; stroke:none;" d="M75 384L76 385L75 384z"/>
<path style="fill:#ffab55; stroke:none;" d="M311 384L312 385L311 384z"/>
<path style="fill:#fed36b; stroke:none;" d="M76 385L77 386L76 385z"/>
<path style="fill:#ffab55; stroke:none;" d="M309 385L310 386L309 385M78 386L79 387L78 386M306 386L307 387L306 386z"/>
<path style="fill:#fed36b; stroke:none;" d="M307 386L308 387L307 386z"/>
<path style="fill:#ffab55; stroke:none;" d="M79 387L80 388L79 387M304 387L305 388L304 387z"/>
<path style="fill:#fed36b; stroke:none;" d="M305 387L306 388L305 387z"/>
<path style="fill:#ffab55; stroke:none;" d="M81 388L82 389L81 388M302 388L303 389L302 388z"/>
<path style="fill:#fed36b; stroke:none;" d="M303 388L304 389L303 388M82 389L83 390L82 389z"/>
<path style="fill:#ffab55; stroke:none;" d="M83 389L84 390L83 389M300 389L301 390L300 389z"/>
<path style="fill:#fed36b; stroke:none;" d="M301 389L302 390L301 389M84 390L85 391L84 390z"/>
<path style="fill:#ffab55; stroke:none;" d="M85 390L86 391L85 390M298 390L299 391L298 390z"/>
<path style="fill:#fed36b; stroke:none;" d="M299 390L300 391L299 390z"/>
<path style="fill:#ffab55; stroke:none;" d="M87 391L88 392L87 391M296 391L297 392L296 391z"/>
<path style="fill:#fed36b; stroke:none;" d="M89 392L90 393L89 392z"/>
<path style="fill:#ffab55; stroke:none;" d="M90 392L91 393L90 392M294 392L295 393L294 392M92 393L93 394L92 393M291 393L292 394L291 393z"/>
<path style="fill:#fed36b; stroke:none;" d="M292 393L293 394L292 393z"/>
<path style="fill:#ffab55; stroke:none;" d="M95 394L96 395L95 394M289 394L290 395L289 394z"/>
<path style="fill:#fed36b; stroke:none;" d="M290 394L291 395L290 394M97 395L98 396L97 395z"/>
<path style="fill:#ffab55; stroke:none;" d="M98 395L99 396L98 395M287 395L288 396L287 395z"/>
<path style="fill:#fed36b; stroke:none;" d="M288 395L289 396L288 395z"/>
<path style="fill:#ffab55; stroke:none;" d="M101 396L102 397L101 396M285 396L286 397L285 396z"/>
<path style="fill:#fed36b; stroke:none;" d="M103 397L104 398L103 397z"/>
<path style="fill:#ffab55; stroke:none;" d="M104 397L105 398L104 397M283 397L284 398L283 397z"/>
<path style="fill:#fed36b; stroke:none;" d="M106 398L107 399L106 398z"/>
<path style="fill:#ffab55; stroke:none;" d="M107 398L108 399L107 398M280 398L281 399L280 398z"/>
<path style="fill:#fed36b; stroke:none;" d="M281 398L282 399L281 398z"/>
<path style="fill:#ffab55; stroke:none;" d="M109.667 399.333L110.333 399.667L109.667 399.333M278 399L279 400L278 399z"/>
<path style="fill:#fed36b; stroke:none;" d="M279 399L280 400L279 399z"/>
<path style="fill:#ffab55; stroke:none;" d="M112 400L113 401L112 400M276 400L277 401L276 400z"/>
<path style="fill:#fed36b; stroke:none;" d="M114 401L115 402L114 401z"/>
<path style="fill:#ffab55; stroke:none;" d="M115 401L116 402L115 401M274 401L275 402L274 401z"/>
<path style="fill:#fed36b; stroke:none;" d="M117 402L118 403L117 402z"/>
<path style="fill:#ffab55; stroke:none;" d="M118 402L119 403L118 402M271 402L272 403L271 402z"/>
<path style="fill:#fed36b; stroke:none;" d="M272 402L273 403L272 402z"/>
<path style="fill:#ffab55; stroke:none;" d="M120 403L121 404L120 403M269 403L270 404L269 403z"/>
<path style="fill:#fed36b; stroke:none;" d="M270 403L271 404L270 403M122 404L123 405L122 404z"/>
<path style="fill:#ffab55; stroke:none;" d="M123 404L124 405L123 404M267 404L268 405L267 404z"/>
<path style="fill:#fed36b; stroke:none;" d="M125 405L126 406L125 405z"/>
<path style="fill:#ffab55; stroke:none;" d="M126 405L127 406L126 405z"/>
<path style="fill:#fed36b; stroke:none;" d="M265 405L266 406L265 405M128 406L129 407L128 406z"/>
<path style="fill:#ffab55; stroke:none;" d="M129 406L130 407L129 406M262 406L263 407L262 406z"/>
<path style="fill:#fed36b; stroke:none;" d="M263 406L264 407L263 406M130 407L131 408L130 407z"/>
<path style="fill:#ffab55; stroke:none;" d="M131 407L132 408L131 407M260 407L261 408L260 407z"/>
<path style="fill:#fed36b; stroke:none;" d="M133 408L134 409L133 408z"/>
<path style="fill:#ffab55; stroke:none;" d="M134 408L135 409L134 408M257 408L258 409L257 408z"/>
<path style="fill:#fed36b; stroke:none;" d="M258 408L259 409L258 408z"/>
<path style="fill:#ffab55; stroke:none;" d="M136.667 409.333L137.333 409.667L136.667 409.333M255 409L256 410L255 409z"/>
<path style="fill:#fed36b; stroke:none;" d="M256 409L257 410L256 409z"/>
<path style="fill:#ffab55; stroke:none;" d="M139 410L140 411L139 410M253 410L254 411L253 410z"/>
<path style="fill:#fed36b; stroke:none;" d="M141 411L142 412L141 411z"/>
<path style="fill:#ffab55; stroke:none;" d="M142 411L143 412L142 411M250 411L251 412L250 411z"/>
<path style="fill:#fed36b; stroke:none;" d="M251 411L252 412L251 411M144 412L145 413L144 412z"/>
<path style="fill:#ffab55; stroke:none;" d="M145 412L146 413L145 412M248 412L249 413L248 412z"/>
<path style="fill:#fed36b; stroke:none;" d="M249 412L250 413L249 412z"/>
<path style="fill:#ffab55; stroke:none;" d="M147 413L148 414L147 413M246 413L247 414L246 413M150 414L151 415L150 414M243 414L244 415L243 414z"/>
<path style="fill:#fed36b; stroke:none;" d="M244 414L245 415L244 414M152 415L153 416L152 415z"/>
<path style="fill:#ffab55; stroke:none;" d="M153 415L154 416L153 415M241 415L242 416L241 415z"/>
<path style="fill:#fed36b; stroke:none;" d="M155 416L156 417L155 416z"/>
<path style="fill:#ffab55; stroke:none;" d="M238 416L239 417L238 416z"/>
<path style="fill:#fed36b; stroke:none;" d="M239 416L240 417L239 416M157 417L158 418L157 417z"/>
<path style="fill:#ffab55; stroke:none;" d="M158 417L159 418L158 417M236 417L237 418L236 417z"/>
<path style="fill:#fed36b; stroke:none;" d="M237 417L238 418L237 417M160 418L161 419L160 418z"/>
<path style="fill:#ffab55; stroke:none;" d="M161 418L162 419L161 418M233 418L234 419L233 418z"/>
<path style="fill:#fed36b; stroke:none;" d="M234 418L235 419L234 418z"/>
<path style="fill:#ffab55; stroke:none;" d="M163.667 419.333L164.333 419.667L163.667 419.333M231 419L232 420L231 419z"/>
<path style="fill:#fed36b; stroke:none;" d="M232 419L233 420L232 419z"/>
<path style="fill:#ffab55; stroke:none;" d="M166 420L167 421L166 420M228 420L229 421L228 420z"/>
<path style="fill:#fed36b; stroke:none;" d="M229 420L230 421L229 420M168 421L169 422L168 421z"/>
<path style="fill:#ffab55; stroke:none;" d="M169 421L170 422L169 421M226 421L227 422L226 421z"/>
<path style="fill:#fed36b; stroke:none;" d="M227 421L228 422L227 421M171 422L172 423L171 422z"/>
<path style="fill:#ffab55; stroke:none;" d="M223 422L224 423L223 422z"/>
<path style="fill:#fed36b; stroke:none;" d="M224 422L225 423L224 422M173 423L174 424L173 423z"/>
<path style="fill:#ffab55; stroke:none;" d="M174 423L175 424L174 423M221 423L222 424L221 423z"/>
<path style="fill:#fed36b; stroke:none;" d="M222 423L223 424L222 423M176 424L177 425L176 424z"/>
<path style="fill:#ffab55; stroke:none;" d="M218 424L219 425L218 424z"/>
<path style="fill:#fed36b; stroke:none;" d="M219 424L220 425L219 424M178 425L179 426L178 425z"/>
<path style="fill:#ffab55; stroke:none;" d="M179 425L180 426L179 425M216 425L217 426L216 425z"/>
<path style="fill:#fed36b; stroke:none;" d="M181 426L182 427L181 426z"/>
<path style="fill:#ffab55; stroke:none;" d="M182 426L183 427L182 426M213 426L214 427L213 426z"/>
<path style="fill:#fed36b; stroke:none;" d="M214 426L215 427L214 426M184 427L185 428L184 427z"/>
<path style="fill:#ffab55; stroke:none;" d="M185 427L186 428L185 427M209.667 427.333L210.333 427.667L209.667 427.333z"/>
<path style="fill:#fed36b; stroke:none;" d="M211 427L212 428L211 427M188 428L189 429L188 428z"/>
<path style="fill:#ffab55; stroke:none;" d="M189.667 428.333L190.333 428.667L189.667 428.333M204 428L204 429L207 429L204 428z"/>
<path style="fill:#fed36b; stroke:none;" d="M207 428L208 429L207 428M193.667 429.333L194.333 429.667L193.667 429.333z"/>
<path style="fill:#ffab55; stroke:none;" d="M195 429L195 430L200 430L195 429z"/>
<path style="fill:#fed36b; stroke:none;" d="M200 429L200 430L203 430L200 429z"/>
</svg>
